<mxfile host="app.diagrams.net" modified="2024-05-24T06:24:59.435Z" agent="Mozilla/5.0 (Windows NT 10.0; Win64; x64) AppleWebKit/537.36 (KHTML, like Gecko) Chrome/124.0.0.0 Safari/537.36" etag="RcEvRKKsyyWlW1dwiUh3" version="24.4.7" type="github">
  <diagram name="第 1 页" id="3JdLDlZtKlIp8TxT6yqI">
    <mxGraphModel dx="1434" dy="780" grid="1" gridSize="10" guides="1" tooltips="1" connect="1" arrows="1" fold="1" page="1" pageScale="1" pageWidth="827" pageHeight="1169" math="0" shadow="0">
      <root>
        <mxCell id="0" />
        <mxCell id="1" parent="0" />
        <mxCell id="FVGwjlgd87L53xhA5rX--4" value="" style="shape=datastore;whiteSpace=wrap;html=1;" vertex="1" parent="1">
          <mxGeometry x="200" y="380" width="60" height="60" as="geometry" />
        </mxCell>
        <mxCell id="FVGwjlgd87L53xhA5rX--5" value="&lt;h1 style=&quot;margin-top: 0px;&quot;&gt;数据库&lt;/h1&gt;&lt;p&gt;主流数据库：Mysql、Oracle、MongoDB、&lt;span style=&quot;background-color: rgb(255, 255, 255); font-family: Arial, sans-serif; font-size: 13px;&quot;&gt;SQL Server、Elasticsearch&lt;/span&gt;&lt;/p&gt;&lt;p&gt;&lt;span style=&quot;background-color: rgb(255, 255, 255); font-family: Arial, sans-serif; font-size: 13px;&quot;&gt;国产数据库：达梦、人大金仓、&lt;/span&gt;&lt;span style=&quot;background-color: rgb(255, 255, 255); font-family: Arial, sans-serif; font-size: 13px;&quot;&gt;openGauss&lt;/span&gt;&lt;/p&gt;&lt;p&gt;&lt;span style=&quot;background-color: rgb(255, 255, 255); font-family: Arial, sans-serif; font-size: 13px;&quot;&gt;&lt;br&gt;&lt;/span&gt;&lt;/p&gt;" style="text;html=1;whiteSpace=wrap;overflow=hidden;rounded=0;" vertex="1" parent="1">
          <mxGeometry x="200" y="465" width="360" height="120" as="geometry" />
        </mxCell>
      </root>
    </mxGraphModel>
  </diagram>
</mxfile>
